<svg width="1280" height="720" xmlns="http://www.w3.org/2000/svg" xmlns:xlink="http://www.w3.org/1999/xlink" overflow="hidden"><defs><filter id="fx0" x="-10%" y="-10%" width="120%" height="120%" filterUnits="userSpaceOnUse" primitiveUnits="userSpaceOnUse"><feComponentTransfer color-interpolation-filters="sRGB"><feFuncR type="discrete" tableValues="0 0"/><feFuncG type="discrete" tableValues="0 0"/><feFuncB type="discrete" tableValues="0 0"/><feFuncA type="linear" slope="0.4" intercept="0"/></feComponentTransfer><feGaussianBlur stdDeviation="1.77778 1.77778"/></filter><clipPath id="clip1"><rect x="0" y="0" width="1280" height="720"/></clipPath></defs><g clip-path="url(#clip1)"><rect x="0" y="0" width="1280" height="720" fill="#FFFFFF"/><g filter="url(#fx0)" transform="translate(-5 28)"><g><path d="M54.262 615.395 54.262 31.0459C54.262 18.2233 64.6569 7.82843 77.4795 7.82843L1264.61 7.82843C1277.43 7.82843 1287.83 18.2233 1287.83 31.0459 1287.83 43.8686 1277.43 54.2634 1264.61 54.2634L1241.39 54.262 1241.39 638.611C1241.39 651.434 1231 661.828 1218.18 661.828L31.0459 661.828C18.2233 661.828 7.82843 651.434 7.82843 638.611 7.82843 625.788 18.2233 615.393 31.0459 615.393ZM77.4795 7.82843C90.3022 7.82843 100.697 18.2233 100.697 31.0459 100.697 43.8686 90.3022 54.2634 77.4795 54.2634 71.0682 54.2634 65.8708 49.066 65.8708 42.6547 65.8708 36.2434 71.0682 31.0459 77.4795 31.0459L100.697 31.0459M1241.39 54.262 77.4795 54.262M31.0459 615.395C37.4573 615.395 42.6547 620.592 42.6547 627.004 42.6547 633.415 37.4573 638.612 31.0459 638.612L54.262 638.611M31.0459 661.828C43.8686 661.828 54.2634 651.434 54.2634 638.611L54.262 615.395" stroke="#042433" stroke-width="2" stroke-miterlimit="8" fill="none" fill-rule="evenodd"/></g></g><path d="M46.4336 640.566 46.4336 56.2175C46.4336 43.3948 56.8284 33 69.6511 33L1256.78 33C1269.61 33 1280 43.3948 1280 56.2175 1280 69.0402 1269.61 79.435 1256.78 79.435L1233.57 79.4336 1233.57 663.782C1233.57 676.605 1223.17 687 1210.35 687L23.2175 687C10.3948 687 0 676.605 0 663.782 0 650.96 10.3948 640.565 23.2175 640.565ZM69.6511 33C82.4738 33 92.8686 43.3948 92.8686 56.2175 92.8686 69.0402 82.4738 79.435 69.6511 79.435 63.2398 79.435 58.0423 74.2376 58.0423 67.8263 58.0423 61.4149 63.2398 56.2175 69.6511 56.2175L92.8686 56.2175M1233.57 79.4336 69.6511 79.4336M23.2175 640.566C29.6288 640.566 34.8262 645.764 34.8262 652.175 34.8262 658.586 29.6288 663.784 23.2175 663.784L46.4336 663.782M23.2175 687C36.0402 687 46.435 676.605 46.435 663.782L46.4336 640.566" stroke="#042433" stroke-width="2" stroke-miterlimit="8" fill="none" fill-rule="evenodd"/><text font-family="Noto Sans CJK SC,Noto Sans CJK SC_MSFontService,sans-serif" font-weight="700" font-size="43" transform="translate(554.636 156)">问题清单</text><text font-family="Noto Sans CJK SC,Noto Sans CJK SC_MSFontService,sans-serif" font-weight="700" font-size="43" transform="translate(725.302 156)"></text><text font-family="Wingdings,Wingdings_MSFontService,sans-serif" font-weight="400" font-size="27" transform="translate(93.2223 227)"></text><text font-family="Noto Serif CJK SC,Noto Serif CJK SC_MSFontService,sans-serif" font-weight="700" font-size="27" transform="translate(123.222 227)">经济波动循环</text><text font-family="Noto Serif CJK SC,Noto Serif CJK SC_MSFontService,sans-serif" font-weight="400" font-size="27" transform="translate(283.222 227)">：“一活就乱、一乱就收、一收就死、一死就放”</text><text font-family="Noto Serif CJK SC,Noto Serif CJK SC_MSFontService,sans-serif" font-weight="400" font-size="27" transform="translate(869.889 227)"></text><text font-family="Wingdings,Wingdings_MSFontService,sans-serif" font-weight="400" font-size="27" transform="translate(93.2223 283)"></text><text font-family="Noto Serif CJK SC,Noto Serif CJK SC_MSFontService,sans-serif" font-weight="700" font-size="27" transform="translate(123.222 283)">寻租与腐败</text><text font-family="Noto Serif CJK SC,Noto Serif CJK SC_MSFontService,sans-serif" font-weight="400" font-size="27" transform="translate(256.556 283)">：制度租金（计划</text><text font-family="Noto Serif CJK SC,Noto Serif CJK SC_MSFontService,sans-serif" font-weight="400" font-size="27" transform="translate(469.889 283)">/</text><text font-family="Noto Serif CJK SC,Noto Serif CJK SC_MSFontService,sans-serif" font-weight="400" font-size="27" transform="translate(479.222 283)">市场差价）驱动，代价波及经济、制度、社会</text><text font-family="Noto Serif CJK SC,Noto Serif CJK SC_MSFontService,sans-serif" font-weight="400" font-size="27" transform="translate(1012.56 283)"></text><text font-family="Wingdings,Wingdings_MSFontService,sans-serif" font-weight="400" font-size="27" transform="translate(93.2223 339)"></text><text font-family="Noto Serif CJK SC,Noto Serif CJK SC_MSFontService,sans-serif" font-weight="700" font-size="27" transform="translate(123.222 339)">国企改革困境</text><text font-family="Noto Serif CJK SC,Noto Serif CJK SC_MSFontService,sans-serif" font-weight="400" font-size="27" transform="translate(283.222 339)">：背负战略</text><text font-family="Noto Serif CJK SC,Noto Serif CJK SC_MSFontService,sans-serif" font-weight="400" font-size="27" transform="translate(416.556 339)">/</text><text font-family="Noto Serif CJK SC,Noto Serif CJK SC_MSFontService,sans-serif" font-weight="400" font-size="27" transform="translate(425.889 339)">社会</text><text font-family="Noto Serif CJK SC,Noto Serif CJK SC_MSFontService,sans-serif" font-weight="400" font-size="27" transform="translate(479.222 339)">/</text><text font-family="Noto Serif CJK SC,Noto Serif CJK SC_MSFontService,sans-serif" font-weight="400" font-size="27" transform="translate(488.556 339)">价格扭曲三重负担，缺乏自生能力，亏损与资产流失严重</text><text font-family="Noto Serif CJK SC,Noto Serif CJK SC_MSFontService,sans-serif" font-weight="400" font-size="27" transform="translate(1155.22 339)"></text><text font-family="Wingdings,Wingdings_MSFontService,sans-serif" font-weight="400" font-size="27" transform="translate(93.2223 395)"></text><text font-family="Noto Serif CJK SC,Noto Serif CJK SC_MSFontService,sans-serif" font-weight="700" font-size="27" transform="translate(123.222 395)">金融体制弊端</text><text font-family="Noto Serif CJK SC,Noto Serif CJK SC_MSFontService,sans-serif" font-weight="400" font-size="27" transform="translate(283.222 395)">：为补贴国企形成大量呆坏账，利率非市场化、银行非商业化、缺乏竞争</text><text font-family="Noto Serif CJK SC,Noto Serif CJK SC_MSFontService,sans-serif" font-weight="400" font-size="27" transform="translate(1136.56 395)"></text><text font-family="Wingdings,Wingdings_MSFontService,sans-serif" font-weight="400" font-size="27" transform="translate(93.2223 451)"></text><text font-family="Noto Serif CJK SC,Noto Serif CJK SC_MSFontService,sans-serif" font-weight="700" font-size="27" transform="translate(123.222 451)">区域与城乡失衡</text><text font-family="Noto Serif CJK SC,Noto Serif CJK SC_MSFontService,sans-serif" font-weight="400" font-size="27" transform="translate(309.889 451)">：东部先行导致差距扩大，城乡收入比</text><text font-family="Noto Serif CJK SC,Noto Serif CJK SC_MSFontService,sans-serif" font-weight="400" font-size="27" transform="translate(763.222 451)">1995</text><text font-family="Noto Serif CJK SC,Noto Serif CJK SC_MSFontService,sans-serif" font-weight="400" font-size="27" transform="translate(820.556 451)">年达</text><text font-family="Noto Serif CJK SC,Noto Serif CJK SC_MSFontService,sans-serif" font-weight="400" font-size="27" transform="translate(873.889 451)">2.71:1</text><text font-family="Noto Serif CJK SC,Noto Serif CJK SC_MSFontService,sans-serif" font-weight="400" font-size="27" transform="translate(945.722 451)"></text><text font-family="Wingdings,Wingdings_MSFontService,sans-serif" font-weight="400" font-size="27" transform="translate(93.2223 507)"></text><text font-family="Noto Serif CJK SC,Noto Serif CJK SC_MSFontService,sans-serif" font-weight="700" font-size="27" transform="translate(123.222 507)">粮食供给压力</text><text font-family="Noto Serif CJK SC,Noto Serif CJK SC_MSFontService,sans-serif" font-weight="400" font-size="27" transform="translate(283.222 507)">：人口增长</text><text font-family="Noto Serif CJK SC,Noto Serif CJK SC_MSFontService,sans-serif" font-weight="400" font-size="27" transform="translate(416.556 507)">+</text><text font-family="Noto Serif CJK SC,Noto Serif CJK SC_MSFontService,sans-serif" font-weight="400" font-size="27" transform="translate(432.056 507)">膳食升级扩大需求，政策制约（价改滞后、科研投入不足）限制</text><text font-family="Noto Serif CJK SC,Noto Serif CJK SC_MSFontService,sans-serif" font-weight="400" font-size="27" transform="translate(123.222 555)">供给</text><text font-family="Noto Serif CJK SC,Noto Serif CJK SC_MSFontService,sans-serif" font-weight="400" font-size="27" transform="translate(176.556 555)"></text><text font-family="Wingdings,Wingdings_MSFontService,sans-serif" font-weight="400" font-size="27" transform="translate(93.2223 611)"></text><text font-family="Noto Serif CJK SC,Noto Serif CJK SC_MSFontService,sans-serif" font-weight="700" font-size="27" transform="translate(123.222 611)">……</text><text font-family="Noto Serif CJK SC,Noto Serif CJK SC_MSFontService,sans-serif" font-weight="700" font-size="27" transform="translate(176.556 611)"></text><text fill="#C00000" font-family="Noto Serif CJK SC,Noto Serif CJK SC_MSFontService,sans-serif" font-weight="400" font-size="24" transform="translate(329.675 583)"></text><text fill="#C00000" font-family="Noto Serif CJK SC,Noto Serif CJK SC_MSFontService,sans-serif" font-weight="400" font-size="24" transform="translate(353.675 583)"></text><text fill="#C00000" font-family="Noto Serif CJK SC,Noto Serif CJK SC_MSFontService,sans-serif" font-weight="400" font-size="24" transform="translate(359.842 583)">传统赶超战略遗留影响</text><text fill="#C00000" font-family="Noto Serif CJK SC,Noto Serif CJK SC_MSFontService,sans-serif" font-weight="400" font-size="24" transform="translate(599.842 583)"></text><text fill="#C00000" font-family="Noto Serif CJK SC,Noto Serif CJK SC_MSFontService,sans-serif" font-weight="400" font-size="24" transform="translate(606.008 583)">+</text><text fill="#C00000" font-family="Noto Serif CJK SC,Noto Serif CJK SC_MSFontService,sans-serif" font-weight="400" font-size="24" transform="translate(626.175 583)">市场化改革不彻底</text><text fill="#C00000" font-family="Noto Serif CJK SC,Noto Serif CJK SC_MSFontService,sans-serif" font-weight="400" font-size="24" transform="translate(818.175 583)"></text><text fill="#C00000" font-family="Noto Serif CJK SC,Noto Serif CJK SC_MSFontService,sans-serif" font-weight="400" font-size="24" transform="translate(329.675 612)">→</text><text fill="#C00000" font-family="Noto Serif CJK SC,Noto Serif CJK SC_MSFontService,sans-serif" font-weight="400" font-size="24" transform="translate(359.842 612)">宏观政策环境扭曲（如低利率、价格双轨）</text><text fill="#C00000" font-family="Noto Serif CJK SC,Noto Serif CJK SC_MSFontService,sans-serif" font-weight="400" font-size="24" transform="translate(815.842 612)"></text><text fill="#C00000" font-family="Noto Serif CJK SC,Noto Serif CJK SC_MSFontService,sans-serif" font-weight="400" font-size="24" transform="translate(329.675 641)">→</text><text fill="#C00000" font-family="Noto Serif CJK SC,Noto Serif CJK SC_MSFontService,sans-serif" font-weight="400" font-size="24" transform="translate(359.842 641)">国企缺乏自生能力成为矛盾核心，衍生各类连锁问题</text><text fill="#C00000" font-family="Noto Serif CJK SC,Noto Serif CJK SC_MSFontService,sans-serif" font-weight="400" font-size="24" transform="translate(911.842 641)"></text><path d="M943.833 652 947.066 639.066 960 635.833 943.833 652 320 652 320 555 960 555 960 635.833" stroke="#C00000" stroke-width="2" stroke-miterlimit="8" fill="none" fill-rule="evenodd"/><path d="M922 555 960 555 960 593 922 593ZM941 559.75C948.87 559.75 955.25 566.13 955.25 574 955.25 581.87 948.87 588.25 941 588.25 933.13 588.25 926.75 581.87 926.75 574 926.75 566.13 933.13 559.75 941 559.75Z" fill="#C00000" fill-rule="evenodd"/><path d="M941 559.75C948.87 559.75 955.25 566.13 955.25 574 955.25 581.87 948.87 588.25 941 588.25 933.13 588.25 926.75 581.87 926.75 574 926.75 566.13 933.13 559.75 941 559.75ZM941 560.641C942.476 560.641 943.672 561.837 943.672 563.312 943.672 564.788 942.476 565.984 941 565.984 939.524 565.984 938.328 564.788 938.328 563.312 938.328 561.837 939.524 560.641 941 560.641M935.656 568.656 935.656 570.437 938.328 570.437 938.328 582.906 935.656 582.906 935.656 584.687 946.344 584.687 946.344 582.906 943.672 582.906 943.672 568.656Z" fill="#730000" fill-rule="evenodd"/><path d="M941 560.641C942.476 560.641 943.672 561.837 943.672 563.312 943.672 564.788 942.476 565.984 941 565.984 939.524 565.984 938.328 564.788 938.328 563.312 938.328 561.837 939.524 560.641 941 560.641M935.656 568.656 943.672 568.656 943.672 582.906 946.344 582.906 946.344 584.687 935.656 584.687 935.656 582.906 938.328 582.906 938.328 570.437 935.656 570.437Z" fill="#D96666" fill-rule="evenodd"/></g></svg>